<?xml version="1.0" ?><svg data-name="Слой 1" id="Слой_1" viewBox="0 0 128 128" xmlns="http://www.w3.org/2000/svg"><title/><path d="M91.4,128a2,2,0,0,1-1.42-.59l-26-26-26,26a2,2,0,0,1-2.83,0L.59,92.81A2,2,0,0,1,.59,90l26-26L.59,38a2,2,0,0,1,0-2.83L35.19.59A2,2,0,0,1,38,.59l26,26,26-26a2,2,0,0,1,2.83,0l34.6,34.6a2,2,0,0,1,0,2.83l-26,26,26,26a2,2,0,0,1,0,2.83l-34.6,34.6A2,2,0,0,1,91.4,128ZM64,96.6a2,2,0,0,1,1.41.59l26,26L123.17,91.4l-26-26a2,2,0,0,1,0-2.82l26-26L91.4,4.83l-26,26a2,2,0,0,1-2.82,0l-26-26L4.83,36.6l26,26a2,2,0,0,1,0,2.82l-26,26L36.6,123.17l26-26A2,2,0,0,1,64,96.6Z"/></svg>